<svg width="324" height="56" viewBox="0 0 324 56" fill="none" xmlns="http://www.w3.org/2000/svg">
<path d="M55.9618 46H49.7334L63.6327 13.2554H70.1587L84.3556 46H77.8296L74.0972 37.0697H63.2205L65.3043 31.8031H71.899L66.7469 19.5067L55.9618 46ZM94.4309 13.2554V46H88.3628V13.2554H94.4309ZM114.994 46H108.765L122.664 13.2554H129.191L143.387 46H136.861L133.129 37.0697H122.252L124.336 31.8031H130.931L125.779 19.5067L114.994 46ZM162.05 28.2309C160.798 27.4066 159.225 26.9944 157.333 26.9944C153.562 26.9944 151.677 29.1087 151.677 33.3372C151.677 38.3596 153.638 40.8708 157.561 40.8708C159.149 40.8708 160.645 40.6494 162.05 40.2067V28.2309ZM168.118 44.5574C164.439 45.5191 160.844 46 157.333 46C149.562 46 145.677 41.8325 145.677 33.4975C145.677 25.8037 149.478 21.9568 157.081 21.9568C158.699 21.9568 160.355 22.3384 162.05 23.1017V13.2554H168.118V44.5574ZM170.98 21.9568H177.391L183.23 38.7641L189.299 21.9568H195.71L185.932 46H180.162L170.98 21.9568ZM204.64 13.2554V18.0641H198.572V13.2554H204.64ZM204.64 21.9568V46H198.572V21.9568H204.64ZM210.388 44.8551V39.8175C213.059 40.886 216.143 41.4203 219.639 41.4203C222.249 41.4203 223.554 40.5807 223.554 38.9015C223.554 37.2986 222.677 36.4972 220.921 36.4972H216.57C211.685 36.4972 209.243 34.0929 209.243 29.2842C209.243 24.2466 212.807 21.7278 219.936 21.7278C222.959 21.7278 225.806 22.1858 228.478 23.1017V28.1393C225.806 27.0707 222.906 26.5365 219.776 26.5365C216.494 26.5365 214.853 27.3761 214.853 29.0553C214.853 30.6581 215.807 31.4596 217.715 31.4596H221.608C226.951 31.4596 229.622 33.8639 229.622 38.6725C229.622 43.7102 226.218 46.229 219.41 46.229C216.067 46.229 213.059 45.771 210.388 44.8551ZM238.805 33.8868C238.805 38.9092 240.751 41.4203 244.644 41.4203C248.536 41.4203 250.483 38.9092 250.483 33.8868C250.483 28.9866 248.536 26.5365 244.644 26.5365C240.751 26.5365 238.805 28.9866 238.805 33.8868ZM232.737 33.9784C232.737 25.9182 236.706 21.8881 244.644 21.8881C252.582 21.8881 256.551 25.9182 256.551 33.9784C256.551 42.0233 252.582 46.0458 244.644 46.0458C236.736 46.0458 232.767 42.0233 232.737 33.9784ZM261.13 46V21.9568H265.825L266.58 25.0252C268.687 22.9796 270.916 21.9568 273.267 21.9568V26.857C271.007 26.857 268.985 27.7959 267.199 29.6735V46H261.13Z" fill="#095256"/>
<rect x="277" y="1" width="46" height="20" rx="10" stroke="#095256" stroke-width="2"/>
<path d="M288.18 13.976C288.623 14.1171 289.137 14.1877 289.721 14.1877C290.889 14.1877 291.473 13.3628 291.473 11.7129C291.473 10.3648 290.969 9.69069 289.962 9.69069C289.309 9.69069 288.716 9.82209 288.18 10.0849V13.976ZM286.246 5.31046H288.18V8.66863C288.76 8.27928 289.404 8.0846 290.115 8.0846C292.295 8.0846 293.386 9.31107 293.386 11.764C293.386 14.4213 292.137 15.75 289.64 15.75C288.589 15.75 287.458 15.6454 286.246 15.4361V5.31046ZM298.08 8.0846C300.406 8.0846 301.569 9.27213 301.569 11.6472C301.569 11.9635 301.547 12.2799 301.504 12.5962H296.415C296.415 13.6767 297.208 14.2169 298.795 14.2169C299.569 14.2169 300.343 14.1439 301.117 13.9979V15.531C300.44 15.677 299.618 15.75 298.649 15.75C295.87 15.75 294.481 14.4432 294.481 11.8297C294.481 9.33297 295.68 8.0846 298.08 8.0846ZM296.415 11.253H299.686V11.1946C299.686 10.1336 299.15 9.60308 298.08 9.60308C297.058 9.60308 296.503 10.153 296.415 11.253ZM302.913 6.84354H304.343L304.635 8.0846H306.563V9.61768H304.847V13.1438C304.847 13.8592 305.156 14.2169 305.774 14.2169H306.563V15.75H304.84C303.555 15.75 302.913 15.0613 302.913 13.684V6.84354ZM307.519 13.3628C307.519 11.8394 308.629 11.0778 310.848 11.0778C311.369 11.0778 311.89 11.1264 312.41 11.2238V10.647C312.41 9.9608 311.916 9.61768 310.928 9.61768C310.091 9.61768 309.162 9.73936 308.14 9.9827V8.44962C309.162 8.20628 310.091 8.0846 310.928 8.0846C313.206 8.0846 314.345 8.92658 314.345 10.6105V15.75H313.221L312.534 15.0638C311.868 15.5213 311.133 15.75 310.33 15.75C308.456 15.75 307.519 14.9543 307.519 13.3628ZM312.41 12.5378C311.924 12.4405 311.403 12.3918 310.848 12.3918C309.918 12.3918 309.454 12.7082 309.454 13.3409C309.454 14.0222 309.843 14.3629 310.622 14.3629C311.264 14.3629 311.86 14.1634 312.41 13.7643V12.5378Z" fill="#095256"/>
</svg>
