<svg width="350" height="350" viewBox="0 0 350 350" fill="none" xmlns="http://www.w3.org/2000/svg">
<circle cx="175" cy="175" r="175" fill="url(#paint0_linear_70_813)"/>
<path d="M261.667 160.077L209.281 140.719L189.984 88.2922C188.842 85.1877 186.774 82.5085 184.061 80.6159C181.348 78.7234 178.119 77.7087 174.811 77.7087C171.503 77.7087 168.274 78.7234 165.561 80.6159C162.848 82.5085 160.78 85.1877 159.638 88.2922L140.219 140.719L87.7922 160.016C84.6877 161.158 82.0085 163.226 80.116 165.939C78.2235 168.652 77.2087 171.881 77.2087 175.189C77.2087 178.497 78.2235 181.726 80.116 184.439C82.0085 187.152 84.6877 189.22 87.7922 190.363L140.219 209.781L159.516 262.208C160.658 265.312 162.726 267.992 165.439 269.884C168.152 271.777 171.381 272.791 174.689 272.791C177.997 272.791 181.226 271.777 183.939 269.884C186.652 267.992 188.72 265.312 189.863 262.208L209.281 209.781L261.708 190.484C264.812 189.342 267.492 187.274 269.384 184.561C271.277 181.848 272.291 178.619 272.291 175.311C272.291 172.003 271.277 168.774 269.384 166.061C267.492 163.348 264.812 161.28 261.708 160.137L261.667 160.077ZM200.141 195.786C199.038 196.192 198.036 196.833 197.205 197.664C196.374 198.496 195.733 199.497 195.327 200.6L174.75 256.348L154.214 200.641C153.808 199.526 153.163 198.514 152.325 197.675C151.486 196.837 150.474 196.192 149.359 195.786L93.6524 175.25L149.359 154.714C150.474 154.308 151.486 153.663 152.325 152.825C153.163 151.986 153.808 150.974 154.214 149.859L174.75 94.1523L195.286 149.859C195.692 150.962 196.333 151.964 197.164 152.795C197.996 153.626 198.997 154.267 200.1 154.673L255.848 175.25L200.141 195.786ZM207.25 69.625C207.25 67.4701 208.106 65.4035 209.63 63.8798C211.154 62.356 213.22 61.5 215.375 61.5H231.625V45.25C231.625 43.0951 232.481 41.0285 234.005 39.5048C235.529 37.981 237.595 37.125 239.75 37.125C241.905 37.125 243.972 37.981 245.495 39.5048C247.019 41.0285 247.875 43.0951 247.875 45.25V61.5H264.125C266.28 61.5 268.347 62.356 269.87 63.8798C271.394 65.4035 272.25 67.4701 272.25 69.625C272.25 71.7799 271.394 73.8465 269.87 75.3702C268.347 76.894 266.28 77.75 264.125 77.75H247.875V94C247.875 96.1549 247.019 98.2215 245.495 99.7452C243.972 101.269 241.905 102.125 239.75 102.125C237.595 102.125 235.529 101.269 234.005 99.7452C232.481 98.2215 231.625 96.1549 231.625 94V77.75H215.375C213.22 77.75 211.154 76.894 209.63 75.3702C208.106 73.8465 207.25 71.7799 207.25 69.625ZM312.875 118.375C312.875 120.53 312.019 122.597 310.495 124.12C308.972 125.644 306.905 126.5 304.75 126.5H296.625V134.625C296.625 136.78 295.769 138.847 294.245 140.37C292.722 141.894 290.655 142.75 288.5 142.75C286.345 142.75 284.279 141.894 282.755 140.37C281.231 138.847 280.375 136.78 280.375 134.625V126.5H272.25C270.095 126.5 268.029 125.644 266.505 124.12C264.981 122.597 264.125 120.53 264.125 118.375C264.125 116.22 264.981 114.153 266.505 112.63C268.029 111.106 270.095 110.25 272.25 110.25H280.375V102.125C280.375 99.9701 281.231 97.9035 282.755 96.3798C284.279 94.856 286.345 94 288.5 94C290.655 94 292.722 94.856 294.245 96.3798C295.769 97.9035 296.625 99.9701 296.625 102.125V110.25H304.75C306.905 110.25 308.972 111.106 310.495 112.63C312.019 114.153 312.875 116.22 312.875 118.375Z" fill="white"/>
<defs>
<linearGradient id="paint0_linear_70_813" x1="175" y1="0" x2="175" y2="350" gradientUnits="userSpaceOnUse">
<stop stop-color="#00DF82"/>
<stop offset="1" stop-color="#4C7779"/>
</linearGradient>
</defs>
</svg>
