<svg width="151" height="32" viewBox="0 0 151 32" fill="none" xmlns="http://www.w3.org/2000/svg">
<path d="M34.8402 5.44922H38.518L40.6098 19.4902L45.6957 5.44922H49.182L53.9398 18.9434L56.1547 5.44922H59.723L56.0453 25H52.6L47.227 9.66016L41.4574 25H38.0531L34.8402 5.44922ZM66.5672 10.6445C70.924 10.6445 73.1023 12.8685 73.1023 17.3164C73.1023 17.9089 73.0613 18.5013 72.9793 19.0938H63.45C63.45 21.1172 64.9357 22.1289 67.907 22.1289C69.3562 22.1289 70.8055 21.9922 72.2547 21.7188V24.5898C70.9878 24.8633 69.4474 25 67.6336 25C62.4292 25 59.827 22.5527 59.827 17.6582C59.827 12.9824 62.0737 10.6445 66.5672 10.6445ZM63.45 16.5781H69.575V16.4688C69.575 14.4818 68.5724 13.4883 66.5672 13.4883C64.6531 13.4883 63.6141 14.5182 63.45 16.5781ZM78.0461 5.44922V25H74.423V5.44922H78.0461ZM83.7008 5.44922V25H80.0777V5.44922H83.7008ZM85.7324 24.1797V20.8984C87.6921 21.6276 89.9069 21.9922 92.377 21.9922C95.3757 21.9922 96.875 20.9896 96.875 18.9844C96.875 17.526 95.9544 16.7969 94.1133 16.7969H91.0508C87.0495 16.7969 85.0488 14.974 85.0488 11.3281C85.0488 7.31771 87.8971 5.3125 93.5938 5.3125C95.7812 5.3125 97.8548 5.63151 99.8145 6.26953V9.55078C97.8548 8.82161 95.7812 8.45703 93.5938 8.45703C90.3125 8.45703 88.6719 9.41406 88.6719 11.3281C88.6719 12.7865 89.4648 13.5156 91.0508 13.5156H94.1133C98.3698 13.5156 100.498 15.3385 100.498 18.9844C100.498 23.0859 97.791 25.1367 92.377 25.1367C89.9069 25.1367 87.6921 24.8177 85.7324 24.1797ZM112.428 24.5898C111.243 24.8633 110.013 25 108.737 25C103.633 25 101.08 22.5163 101.08 17.5488C101.08 12.946 103.633 10.6445 108.737 10.6445C110.013 10.6445 111.243 10.7812 112.428 11.0547V13.9258C111.243 13.6523 110.104 13.5156 109.01 13.5156C106.139 13.5156 104.704 14.86 104.704 17.5488C104.704 20.6022 106.139 22.1289 109.01 22.1289C110.104 22.1289 111.243 21.9922 112.428 21.7188V24.5898ZM116.36 17.7676C116.36 20.7663 117.522 22.2656 119.846 22.2656C122.171 22.2656 123.333 20.7663 123.333 17.7676C123.333 14.8418 122.171 13.3789 119.846 13.3789C117.522 13.3789 116.36 14.8418 116.36 17.7676ZM112.737 17.8223C112.737 13.0098 115.107 10.6035 119.846 10.6035C124.586 10.6035 126.956 13.0098 126.956 17.8223C126.956 22.6257 124.586 25.0273 119.846 25.0273C115.125 25.0273 112.755 22.6257 112.737 17.8223ZM141.21 10.6445V25H138.38L137.943 23.168C136.293 24.3893 134.543 25 132.693 25C129.758 25 128.29 23.2637 128.29 19.791V10.6445H131.913V19.6953C131.913 21.2812 132.606 22.0742 133.991 22.0742C135.167 22.0742 136.366 21.6048 137.587 20.666V10.6445H141.21ZM143.037 8.32031H145.716L146.263 10.6445H149.873V13.5156H146.66V20.1191C146.66 21.459 147.239 22.1289 148.396 22.1289H149.873V25H146.646C144.24 25 143.037 23.7103 143.037 21.1309V8.32031Z" fill="#3B2345"/>
<path d="M27.9312 5.00875C27.9169 4.76411 27.8133 4.53323 27.64 4.35994C27.4667 4.18666 27.2358 4.08304 26.9912 4.06875C17.4749 3.51 9.85245 6.375 6.60245 11.75C5.4759 13.5886 4.92077 15.7204 5.00745 17.875C5.0787 19.865 5.6587 21.875 6.7312 23.8563L4.29245 26.2938C4.10481 26.4814 3.99939 26.7359 3.99939 27.0012C3.99939 27.2666 4.1048 27.5211 4.29245 27.7087C4.48009 27.8964 4.73458 28.0018 4.99995 28.0018C5.26531 28.0018 5.5198 27.8964 5.70745 27.7087L8.14495 25.27C10.1249 26.3413 12.1362 26.9213 14.1249 26.9925C14.2641 26.9975 14.4029 27 14.5412 27C16.5559 27.0054 18.5324 26.4506 20.2499 25.3975C25.6249 22.1475 28.4912 14.5263 27.9312 5.00875ZM19.2187 23.6875C16.3749 25.41 13.0087 25.4375 9.62995 23.7838L20.7087 12.7063C20.8016 12.6133 20.8753 12.503 20.9256 12.3816C20.9759 12.2603 21.0018 12.1301 21.0018 11.9987C21.0018 11.8674 20.9759 11.7372 20.9256 11.6159C20.8753 11.4945 20.8016 11.3842 20.7087 11.2913C20.6158 11.1983 20.5055 11.1246 20.3841 11.0744C20.2627 11.0241 20.1326 10.9982 20.0012 10.9982C19.8698 10.9982 19.7397 11.0241 19.6183 11.0744C19.4969 11.1246 19.3866 11.1983 19.2937 11.2913L8.2162 22.375C6.56745 19 6.5912 15.625 8.31245 12.7863C11.0737 8.2275 17.6374 5.73125 25.9762 6.02875C26.2749 14.3613 23.7774 20.9262 19.2187 23.6875Z" fill="#3B2345"/>
</svg>
