<svg width="400" height="400" viewBox="0 0 400 400" fill="none" xmlns="http://www.w3.org/2000/svg">
<rect width="400" height="400" fill="#E8E8E8"/>
<path d="M113.187 90.5704C112.364 89.6423 111.365 88.8869 110.248 88.3479C109.13 87.8089 107.917 87.4971 106.678 87.4304C105.439 87.3638 104.2 87.5437 103.031 87.9597C101.862 88.3757 100.787 89.0195 99.8693 89.8539C98.9512 90.6882 98.2078 91.6965 97.6822 92.8203C97.1567 93.9441 96.8594 95.161 96.8076 96.4005C96.7558 97.64 96.9505 98.8775 97.3805 100.041C97.8105 101.205 98.4672 102.272 99.3125 103.18L110.621 115.625H106.25C98.7908 115.625 91.6371 118.588 86.3626 123.863C81.0882 129.137 78.125 136.291 78.125 143.75V275C78.125 282.459 81.0882 289.613 86.3626 294.887C91.6371 300.162 98.7908 303.125 106.25 303.125H281.082L286.813 309.43C287.636 310.358 288.635 311.113 289.753 311.652C290.87 312.191 292.083 312.503 293.322 312.57C294.561 312.636 295.801 312.456 296.969 312.04C298.138 311.624 299.213 310.981 300.131 310.146C301.049 309.312 301.792 308.304 302.318 307.18C302.843 306.056 303.141 304.839 303.192 303.6C303.244 302.36 303.049 301.123 302.619 299.959C302.189 298.795 301.533 297.728 300.687 296.82L113.187 90.5704ZM173.727 185.035L217.086 232.719C211.945 235.868 206.029 237.523 200 237.5C193.91 237.5 187.941 235.804 182.76 232.604C177.579 229.404 173.39 224.825 170.664 219.38C167.937 213.935 166.779 207.839 167.32 201.773C167.861 195.707 170.079 189.912 173.727 185.035ZM106.25 284.375C103.764 284.375 101.379 283.387 99.6209 281.629C97.8627 279.871 96.875 277.486 96.875 275V143.75C96.875 141.264 97.8627 138.879 99.6209 137.121C101.379 135.363 103.764 134.375 106.25 134.375H127.672L160.965 171.008C154.515 178.485 150.348 187.656 148.958 197.432C147.569 207.209 149.016 217.178 153.127 226.156C157.238 235.134 163.841 242.742 172.15 248.077C180.459 253.412 190.126 256.249 200 256.25C210.681 256.227 221.093 252.904 229.813 246.734L264.031 284.375H106.25ZM321.875 143.75V267.969C321.875 270.455 320.887 272.84 319.129 274.598C317.371 276.356 314.986 277.344 312.5 277.344C310.014 277.344 307.629 276.356 305.871 274.598C304.113 272.84 303.125 270.455 303.125 267.969V143.75C303.125 141.264 302.137 138.879 300.379 137.121C298.621 135.363 296.236 134.375 293.75 134.375H256.25C254.708 134.374 253.19 133.993 251.831 133.265C250.472 132.538 249.313 131.486 248.457 130.203L232.473 106.25H167.469C165.957 108.125 163.782 109.346 161.395 109.66C159.007 109.974 156.59 109.358 154.645 107.939C152.7 106.519 151.375 104.406 150.946 102.036C150.517 99.6664 151.016 97.2225 152.34 95.211L154.684 91.6954C155.539 90.4051 156.7 89.3467 158.064 88.6147C159.428 87.8826 160.952 87.4997 162.5 87.5001H237.5C239.044 87.4991 240.564 87.8793 241.926 88.6071C243.287 89.3349 244.448 90.3877 245.305 91.6719L261.266 115.625H293.75C301.209 115.625 308.363 118.588 313.637 123.863C318.912 129.137 321.875 136.291 321.875 143.75Z" fill="#343434"/>
</svg>
